<svg width="17" height="16" viewBox="0 0 17 16" fill="none" xmlns="http://www.w3.org/2000/svg">
<mask id="mask0_1_94" style="mask-type:luminance" maskUnits="userSpaceOnUse" x="0" y="0" width="17" height="16">
<path d="M16.5 0H0.5V16H16.5V0Z" fill="white"/>
</mask>
<g mask="url(#mask0_1_94)">
<path d="M15.0281 12.4689C14.7862 13.0279 14.4998 13.5424 14.1679 14.0155C13.7156 14.6604 13.3452 15.1068 13.0598 15.3547C12.6173 15.7616 12.1433 15.97 11.6357 15.9818C11.2712 15.9818 10.8317 15.8781 10.3201 15.6678C9.80687 15.4584 9.33518 15.3547 8.90389 15.3547C8.45156 15.3547 7.96644 15.4584 7.44754 15.6678C6.92785 15.8781 6.5092 15.9878 6.18911 15.9986C5.70231 16.0194 5.21709 15.8051 4.73276 15.3547C4.42364 15.0851 4.03698 14.6229 3.57379 13.9681C3.07681 13.2688 2.66823 12.458 2.34815 11.5336C2.00534 10.5351 1.8335 9.56821 1.8335 8.63214C1.8335 7.55987 2.06519 6.63506 2.52928 5.86007C2.89401 5.23757 3.37922 4.74653 3.98651 4.38604C4.5938 4.02556 5.24998 3.84186 5.95662 3.83011C6.34328 3.83011 6.85032 3.94971 7.48043 4.18477C8.10875 4.42061 8.5122 4.54021 8.68908 4.54021C8.82132 4.54021 9.2695 4.40036 10.0293 4.12156C10.7478 3.863 11.3542 3.75594 11.851 3.79811C13.1971 3.90675 14.2084 4.4374 14.881 5.39342C13.6771 6.12288 13.0815 7.14458 13.0934 8.45525C13.1042 9.47616 13.4746 10.3257 14.2025 11.0003C14.5323 11.3133 14.9007 11.5553 15.3106 11.7272C15.2217 11.9849 15.1279 12.2318 15.0281 12.4689ZM11.9408 0.320091C11.9408 1.12027 11.6485 1.8674 11.0658 2.55894C10.3626 3.38104 9.51207 3.85608 8.58972 3.78112C8.57797 3.68513 8.57116 3.58409 8.57116 3.47792C8.57116 2.70975 8.90557 1.88765 9.49942 1.21547C9.79591 0.875136 10.173 0.592152 10.6303 0.36641C11.0865 0.144037 11.5181 0.0210593 11.924 0C11.9359 0.106972 11.9408 0.213961 11.9408 0.320091Z" fill="black"/>
</g>
</svg>
