<svg width="16" height="16" viewBox="0 0 16 16" fill="none" xmlns="http://www.w3.org/2000/svg">
<g clip-path="url(#clip0_1_253)">
<path d="M14.528 12.469C14.286 13.028 13.9996 13.5426 13.6678 14.0157C13.2154 14.6606 12.8451 15.107 12.5597 15.3549C12.1172 15.7618 11.6431 15.9702 11.1355 15.982C10.7711 15.982 10.3316 15.8783 9.81999 15.668C9.30672 15.4586 8.83503 15.3549 8.40374 15.3549C7.9514 15.3549 7.46628 15.4586 6.94739 15.668C6.4277 15.8783 6.00905 15.988 5.68896 15.9988C5.20216 16.0196 4.71694 15.8052 4.23261 15.3549C3.92348 15.0853 3.53683 14.6231 3.07363 13.9683C2.57666 13.269 2.16808 12.4582 1.84799 11.5338C1.50519 10.5353 1.33334 9.56839 1.33334 8.63232C1.33334 7.56006 1.56504 6.63524 2.02912 5.86026C2.39385 5.23776 2.87907 4.74671 3.48636 4.38623C4.09365 4.02574 4.74983 3.84205 5.45647 3.83029C5.84313 3.83029 6.35017 3.94989 6.98027 4.18495C7.6086 4.42079 8.01204 4.54039 8.18893 4.54039C8.32117 4.54039 8.76935 4.40055 9.52913 4.12174C10.2476 3.86318 10.854 3.75612 11.3508 3.79829C12.6969 3.90693 13.7083 4.43758 14.3808 5.3936C13.1769 6.12306 12.5814 7.14476 12.5932 8.45544C12.6041 9.47634 12.9745 10.3259 13.7023 11.0004C14.0322 11.3135 14.4006 11.5555 14.8104 11.7273C14.7216 11.9851 14.6277 12.232 14.528 12.469V12.469ZM11.4407 0.320274C11.4407 1.12046 11.1483 1.86759 10.5656 2.55912C9.86245 3.38122 9.01191 3.85627 8.08957 3.78131C8.07782 3.68531 8.071 3.58427 8.071 3.47811C8.071 2.70993 8.40541 1.88783 8.99927 1.21565C9.29575 0.875319 9.67283 0.592335 10.1301 0.366593C10.5864 0.14422 11.018 0.0212425 11.4239 0.000183105C11.4357 0.107155 11.4407 0.214134 11.4407 0.320264V0.320274Z" fill="white"/>
</g>
<defs>
<clipPath id="clip0_1_253">
<rect width="16" height="16" fill="white"/>
</clipPath>
</defs>
</svg>
