<svg width="17" height="16" viewBox="0 0 17 16" fill="none" xmlns="http://www.w3.org/2000/svg">
<g clip-path="url(#clip0_1_131)">
<mask id="mask0_1_131" style="mask-type:luminance" maskUnits="userSpaceOnUse" x="0" y="0" width="17" height="16">
<path d="M16.5 0H0.5V16H16.5V0Z" fill="white"/>
</mask>
<g mask="url(#mask0_1_131)">
<path d="M14.0447 2.77022C13.0249 2.3023 11.9313 1.95755 10.7879 1.76011C10.7671 1.75629 10.7463 1.76582 10.7356 1.78486C10.5949 2.03501 10.4392 2.36134 10.3301 2.61784C9.10027 2.43372 7.87679 2.43372 6.67221 2.61784C6.5631 2.35564 6.40166 2.03501 6.26038 1.78486C6.24966 1.76645 6.22886 1.75693 6.20803 1.76011C5.06527 1.95692 3.97171 2.30167 2.95129 2.77022C2.94246 2.77403 2.93488 2.78038 2.92986 2.78863C0.855594 5.88754 0.287366 8.91028 0.56612 11.8955C0.567381 11.9101 0.57558 11.9241 0.586932 11.933C1.95547 12.938 3.28114 13.5482 4.58219 13.9526C4.60301 13.9589 4.62507 13.9513 4.63832 13.9342C4.94608 13.5139 5.22043 13.0707 5.45565 12.6047C5.46953 12.5774 5.45628 12.545 5.42791 12.5342C4.99275 12.3692 4.5784 12.1679 4.17982 11.9393C4.14829 11.9209 4.14577 11.8758 4.17477 11.8543C4.25865 11.7914 4.34255 11.726 4.42264 11.66C4.43713 11.6479 4.45732 11.6454 4.47435 11.653C7.09286 12.8485 9.9277 12.8485 12.5153 11.653C12.5323 11.6447 12.5525 11.6473 12.5677 11.6593C12.6478 11.7254 12.7316 11.7914 12.8161 11.8543C12.8452 11.8758 12.8433 11.9209 12.8117 11.9393C12.4131 12.1723 11.9988 12.3692 11.563 12.5336C11.5346 12.5444 11.522 12.5774 11.5359 12.6047C11.7762 13.0701 12.0505 13.5132 12.3526 13.9335C12.3652 13.9513 12.3879 13.9589 12.4087 13.9526C13.7161 13.5482 15.0417 12.938 16.4103 11.933C16.4223 11.9241 16.4298 11.9108 16.4311 11.8962C16.7647 8.44488 15.8723 5.44693 14.0655 2.78926C14.0611 2.78038 14.0535 2.77403 14.0447 2.77022ZM5.84668 10.0778C5.05833 10.0778 4.40876 9.35406 4.40876 8.46521C4.40876 7.57635 5.04574 6.85259 5.84668 6.85259C6.65392 6.85259 7.29721 7.5827 7.28459 8.46521C7.28459 9.35406 6.64761 10.0778 5.84668 10.0778ZM11.1632 10.0778C10.3748 10.0778 9.72526 9.35406 9.72526 8.46521C9.72526 7.57635 10.3622 6.85259 11.1632 6.85259C11.9704 6.85259 12.6137 7.5827 12.6011 8.46521C12.6011 9.35406 11.9704 10.0778 11.1632 10.0778Z" fill="#5865F2"/>
</g>
</g>
<defs>
<clipPath id="clip0_1_131">
<rect width="17" height="16" fill="white"/>
</clipPath>
</defs>
</svg>
