<svg width="16" height="16" viewBox="0 0 16 16" fill="none" xmlns="http://www.w3.org/2000/svg">
<path d="M13.5447 2.7704C12.5249 2.30247 11.4313 1.95773 10.2879 1.76028C10.2671 1.75647 10.2463 1.76599 10.2356 1.78504C10.0949 2.03518 9.93915 2.36152 9.83006 2.61801C8.60027 2.4339 7.37679 2.4339 6.17221 2.61801C6.0631 2.35582 5.90166 2.03518 5.76038 1.78504C5.74966 1.76663 5.72886 1.75711 5.70803 1.76028C4.56527 1.9571 3.47171 2.30184 2.45129 2.7704C2.44246 2.7742 2.43488 2.78056 2.42986 2.78881C0.355594 5.88771 -0.212633 8.91045 0.0661201 11.8957C0.0673814 11.9103 0.0755799 11.9243 0.086932 11.9332C1.45547 12.9382 2.78114 13.5483 4.08219 13.9528C4.10301 13.9591 4.12507 13.9515 4.13832 13.9343C4.44608 13.5141 4.72043 13.0709 4.95565 12.6049C4.96953 12.5776 4.95628 12.5452 4.92791 12.5344C4.49275 12.3693 4.0784 12.1681 3.67982 11.9395C3.64829 11.9211 3.64577 11.876 3.67477 11.8544C3.75865 11.7916 3.84255 11.7262 3.92264 11.6602C3.93713 11.6481 3.95732 11.6456 3.97435 11.6532C6.59286 12.8487 9.4277 12.8487 12.0153 11.6532C12.0323 11.6449 12.0525 11.6475 12.0677 11.6595C12.1478 11.7256 12.2316 11.7916 12.3161 11.8544C12.3451 11.876 12.3433 11.9211 12.3117 11.9395C11.9131 12.1725 11.4988 12.3693 11.063 12.5338C11.0346 12.5446 11.022 12.5776 11.0359 12.6049C11.2762 13.0703 11.5505 13.5134 11.8526 13.9337C11.8652 13.9515 11.8879 13.9591 11.9087 13.9528C13.2161 13.5483 14.5417 12.9382 15.9103 11.9332C15.9223 11.9243 15.9298 11.9109 15.9311 11.8963C16.2647 8.44506 15.3723 5.44711 13.5655 2.78944C13.5611 2.78056 13.5535 2.7742 13.5447 2.7704ZM5.34668 10.078C4.55833 10.078 3.90875 9.35424 3.90875 8.46538C3.90875 7.57653 4.54574 6.85276 5.34668 6.85276C6.15392 6.85276 6.79721 7.58288 6.78459 8.46538C6.78459 9.35424 6.14761 10.078 5.34668 10.078ZM10.6632 10.078C9.87484 10.078 9.22526 9.35424 9.22526 8.46538C9.22526 7.57653 9.86222 6.85276 10.6632 6.85276C11.4704 6.85276 12.1137 7.58288 12.1011 8.46538C12.1011 9.35424 11.4704 10.078 10.6632 10.078Z" fill="white"/>
</svg>
