<svg width="17" height="16" viewBox="0 0 17 16" fill="none" xmlns="http://www.w3.org/2000/svg">
<g clip-path="url(#clip0_1_122)">
<mask id="mask0_1_122" style="mask-type:luminance" maskUnits="userSpaceOnUse" x="0" y="0" width="17" height="16">
<path d="M16.5 0H0.5V16H16.5V0Z" fill="white"/>
</mask>
<g mask="url(#mask0_1_122)">
<path d="M16.3442 8.18417C16.3442 7.64035 16.3001 7.09359 16.206 6.55859H8.66016V9.63925H12.9813C12.802 10.6328 12.2258 11.5117 11.3822 12.0703V14.0692H13.9602C15.4741 12.6758 16.3442 10.6181 16.3442 8.18417Z" fill="#4285F4"/>
<path d="M8.66023 16.0007C10.8179 16.0007 12.6374 15.2923 13.9632 14.0694L11.3852 12.0705C10.6679 12.5585 9.74199 12.8348 8.66317 12.8348C6.57609 12.8348 4.80647 11.4268 4.17153 9.53369H1.51123V11.5943C2.86931 14.2958 5.63543 16.0007 8.66023 16.0007Z" fill="#34A853"/>
<path d="M4.16852 9.53331C3.83341 8.53974 3.83341 7.46387 4.16852 6.4703V4.40967H1.51116C0.376489 6.67019 0.376489 9.33342 1.51116 11.5939L4.16852 9.53331Z" fill="#FBBC04"/>
<path d="M8.66023 3.16644C9.80078 3.1488 10.9031 3.57798 11.7291 4.36578L14.0132 2.08174C12.5669 0.72367 10.6474 -0.0229773 8.66023 0.000539109C5.63543 0.000539109 2.86931 1.70548 1.51123 4.40987L4.16859 6.4705C4.80059 4.57449 6.57315 3.16644 8.66023 3.16644Z" fill="#EA4335"/>
</g>
</g>
<defs>
<clipPath id="clip0_1_122">
<rect width="17" height="16" fill="white"/>
</clipPath>
</defs>
</svg>
