<svg width="16" height="16" viewBox="0 0 16 16" fill="none" xmlns="http://www.w3.org/2000/svg">
<g clip-path="url(#clip0_1_251)">
<path fill-rule="evenodd" clip-rule="evenodd" d="M11.2289 4.36523C10.4029 3.57743 9.30054 3.14825 8.16 3.16589C6.07292 3.16589 4.30037 4.57393 3.66836 6.46993C3.33325 7.46349 3.33325 8.53941 3.66836 9.53298H3.67129C4.30624 11.4261 6.07585 12.8341 8.16294 12.8341C9.24029 12.8341 10.1652 12.5585 10.882 12.0718V12.0698C11.7257 11.5113 12.3018 10.6324 12.4812 9.63882H8.16V6.55817H15.7059C15.7999 7.09317 15.844 7.63992 15.844 8.18374C15.844 10.617 14.9744 12.6742 13.4614 14.0675L13.463 14.0687C12.1372 15.2916 10.3176 16 8.16 16C5.13519 16 2.36907 14.2951 1.011 11.5936C-0.123663 9.33309 -0.123661 6.66985 1.011 4.40934C2.36908 1.70495 5.13519 -1.02057e-05 8.16 -1.02057e-05C10.1471 -0.0235267 12.0667 0.723121 13.5129 2.0812L11.2289 4.36523Z" fill="white"/>
</g>
<defs>
<clipPath id="clip0_1_251">
<rect width="16" height="16" fill="white"/>
</clipPath>
</defs>
</svg>
