<svg width="17" height="16" viewBox="0 0 17 16" fill="none" xmlns="http://www.w3.org/2000/svg">
<g clip-path="url(#clip0_1_143)">
<mask id="mask0_1_143" style="mask-type:luminance" maskUnits="userSpaceOnUse" x="0" y="0" width="17" height="16">
<path d="M16.5 0H0.5V16H16.5V0Z" fill="white"/>
</mask>
<g mask="url(#mask0_1_143)">
<path d="M8.5 16C12.9183 16 16.5 12.4183 16.5 8C16.5 3.58172 12.9183 0 8.5 0C4.08172 0 0.5 3.58172 0.5 8C0.5 12.4183 4.08172 16 8.5 16Z" fill="url(#paint0_linear_1_143)"/>
<path fill-rule="evenodd" clip-rule="evenodd" d="M4.12118 7.91547C6.45334 6.89938 8.00848 6.22952 8.7866 5.90587C11.0083 4.9818 11.4699 4.82128 11.7708 4.81597C11.837 4.81481 11.985 4.83121 12.0808 4.90899C12.1618 4.97466 12.184 5.06337 12.1947 5.12563C12.2053 5.1879 12.2186 5.32974 12.2081 5.44057C12.0877 6.70556 11.5667 9.77535 11.3017 11.1922C11.1896 11.7917 10.9687 11.9927 10.755 12.0123C10.2904 12.0551 9.93762 11.7053 9.48766 11.4104C8.78356 10.9488 8.38578 10.6615 7.70233 10.2111C6.91248 9.69061 7.4245 9.40454 7.87464 8.93701C7.99244 8.81466 10.0394 6.95282 10.079 6.78392C10.0839 6.7628 10.0885 6.68406 10.0418 6.64248C9.99498 6.60091 9.92595 6.61512 9.87613 6.62643C9.80551 6.64246 8.68069 7.38592 6.50168 8.85681C6.1824 9.07605 5.89321 9.18287 5.63411 9.17727C5.34847 9.1711 4.79901 9.01577 4.39054 8.88299C3.88954 8.72014 3.49136 8.63403 3.52603 8.35745C3.54409 8.21339 3.74247 8.06607 4.12118 7.91547Z" fill="white"/>
</g>
</g>
<defs>
<linearGradient id="paint0_linear_1_143" x1="8.5" y1="0" x2="8.5" y2="15.8813" gradientUnits="userSpaceOnUse">
<stop stop-color="#2AABEE"/>
<stop offset="1" stop-color="#229ED9"/>
</linearGradient>
<clipPath id="clip0_1_143">
<rect width="17" height="16" fill="white"/>
</clipPath>
</defs>
</svg>
