<svg width="17" height="16" viewBox="0 0 17 16" fill="none" xmlns="http://www.w3.org/2000/svg">
<g clip-path="url(#clip0_1_137)">
<mask id="mask0_1_137" style="mask-type:luminance" maskUnits="userSpaceOnUse" x="0" y="0" width="17" height="16">
<path d="M16.5 0H0.5V16H16.5V0Z" fill="white"/>
</mask>
<g mask="url(#mask0_1_137)">
<path d="M5.53168 14.5003C11.5694 14.5003 14.8718 9.4981 14.8718 5.16018C14.8718 5.0181 14.8718 4.87666 14.8622 4.73586C15.5047 4.27117 16.0593 3.69579 16.5 3.03666C15.9009 3.30227 15.2654 3.47637 14.6146 3.55314C15.2999 3.14294 15.8128 2.49767 16.0578 1.73746C15.4134 2.11987 14.7084 2.38935 13.9733 2.53426C13.4783 2.00798 12.8237 1.65949 12.1108 1.54272C11.3978 1.42595 10.6663 1.54741 10.0293 1.8883C9.39234 2.22919 8.88548 2.77051 8.58716 3.4285C8.28884 4.08648 8.21569 4.82444 8.37904 5.52818C7.07393 5.46272 5.79717 5.12354 4.63164 4.53267C3.4661 3.9418 2.43784 3.11244 1.6136 2.09842C1.19382 2.82109 1.06525 3.67658 1.25407 4.49071C1.44288 5.30483 1.93489 6.01639 2.62992 6.4805C2.10749 6.4652 1.59643 6.32426 1.14 6.06962V6.11122C1.14021 6.86912 1.40257 7.60362 1.88258 8.19013C2.36259 8.77665 3.03071 9.17907 3.7736 9.32914C3.29032 9.46097 2.78325 9.48024 2.29136 9.38546C2.50121 10.0377 2.90962 10.608 3.45949 11.0168C4.00937 11.4255 4.67322 11.6522 5.35824 11.6651C4.67763 12.2001 3.89821 12.5957 3.06458 12.8291C2.23096 13.0626 1.35948 13.1294 0.5 13.0258C2.00122 13.9891 3.74795 14.5001 5.53168 14.4978" fill="#1DA1F2"/>
</g>
</g>
<defs>
<clipPath id="clip0_1_137">
<rect width="17" height="16" fill="white"/>
</clipPath>
</defs>
</svg>
