<svg width="16" height="16" viewBox="0 0 16 16" fill="none" xmlns="http://www.w3.org/2000/svg">
<g clip-path="url(#clip0_1_259)">
<path fill-rule="evenodd" clip-rule="evenodd" d="M1.12471 1.12471C0 2.24942 0 4.0596 0 7.68V8.32C0 11.9404 0 13.7506 1.12471 14.8753C2.24942 16 4.0596 16 7.68 16H8.32C11.9404 16 13.7506 16 14.8753 14.8753C16 13.7506 16 11.9404 16 8.32V7.68C16 4.0596 16 2.24942 14.8753 1.12471C13.7506 0 11.9404 0 8.32 0H7.68C4.0596 0 2.24942 0 1.12471 1.12471ZM2.70004 4.8667C2.78671 9.0267 4.8667 11.5267 8.51337 11.5267H8.72007V9.1467C10.0601 9.28003 11.0733 10.26 11.48 11.5267H13.3734C12.8534 9.63337 11.4866 8.5867 10.6333 8.1867C11.4866 7.69337 12.6866 6.49337 12.9733 4.8667H11.2533C10.8799 6.1867 9.7734 7.3867 8.72007 7.50003V4.8667H7V9.48003C5.93333 9.21337 4.5867 7.92003 4.5267 4.8667H2.70004Z" fill="white"/>
</g>
<defs>
<clipPath id="clip0_1_259">
<rect width="16" height="16" fill="white"/>
</clipPath>
</defs>
</svg>
