<svg width="17" height="16" viewBox="0 0 17 16" fill="none" xmlns="http://www.w3.org/2000/svg">
<g clip-path="url(#clip0_1_100)">
<mask id="mask0_1_100" style="mask-type:luminance" maskUnits="userSpaceOnUse" x="0" y="0" width="17" height="16">
<path d="M16.5 0H0.5V16H16.5V0Z" fill="white"/>
</mask>
<g mask="url(#mask0_1_100)">
<path d="M0.5 7.68C0.5 4.0596 0.5 2.24942 1.62471 1.12471C2.74942 0 4.5596 0 8.18 0H8.82C12.4404 0 14.2506 0 15.3753 1.12471C16.5 2.24942 16.5 4.0596 16.5 7.68V8.32C16.5 11.9404 16.5 13.7506 15.3753 14.8753C14.2506 16 12.4404 16 8.82 16H8.18C4.5596 16 2.74942 16 1.62471 14.8753C0.5 13.7506 0.5 11.9404 0.5 8.32V7.68Z" fill="#0077FF"/>
<path d="M9.0135 11.5267C5.36683 11.5267 3.28686 9.0267 3.2002 4.8667H5.02686C5.08686 7.92003 6.4335 9.21337 7.50016 9.48003V4.8667H9.22023V7.50003C10.2736 7.3867 11.3801 6.1867 11.7534 4.8667H13.4735C13.1868 6.49337 11.9868 7.69337 11.1335 8.1867C11.9868 8.5867 13.3535 9.63337 13.8735 11.5267H11.9801C11.5735 10.26 10.5602 9.28003 9.22023 9.1467V11.5267H9.0135Z" fill="white"/>
</g>
</g>
<defs>
<clipPath id="clip0_1_100">
<rect width="17" height="16" fill="white"/>
</clipPath>
</defs>
</svg>
