<svg width="16" height="16" viewBox="0 0 16 16" fill="none" xmlns="http://www.w3.org/2000/svg">
  <g clip-path="url(#clip0_1_644)">
    <path fill-rule="evenodd" clip-rule="evenodd"
          d="M8.00002 1.6C4.46539 1.6 1.6 4.46538 1.6 8C1.6 11.5346 4.46539 14.4 8.00002 14.4C11.5346 14.4 14.4 11.5346 14.4 8C14.4 4.46538 11.5346 1.6 8.00002 1.6ZM0 8C0 3.58172 3.58173 0 8.00002 0C12.4183 0 16 3.58172 16 8C16 12.4182 12.4183 16 8.00002 16C3.58173 16 0 12.4182 0 8ZM8.00002 3.2C8.44185 3.2 8.79998 3.55818 8.79998 4V7.66863L10.9657 9.83435C11.2782 10.1468 11.2782 10.6532 10.9657 10.9657C10.6533 11.2781 10.1468 11.2781 9.83433 10.9657L7.43433 8.56569C7.2843 8.41566 7.20002 8.21217 7.20002 8V4C7.20002 3.55818 7.55819 3.2 8.00002 3.2Z"
          fill="currentColor"/>
  </g>
  <defs>
    <clipPath id="clip0_1_644">
      <rect width="16" height="16" fill="white"/>
    </clipPath>
  </defs>
</svg>
