<svg width="16" height="16" viewBox="0 0 16 16" fill="none" xmlns="http://www.w3.org/2000/svg">
<g clip-path="url(#clip0_1_648)">
<path fill-rule="evenodd" clip-rule="evenodd" d="M0 1.60001C0 0.716345 0.716344 0 1.6 0H9.60002C10.4836 0 11.2 0.716353 11.2 1.60001V4.80001H14.4C15.2836 4.80001 16 5.51636 16 6.40001V14.4C16 15.2837 15.2836 16 14.4 16H6.40001C5.51635 16 4.80001 15.2837 4.80001 14.4V11.2H1.6C0.716344 11.2 0 10.4837 0 9.60001V1.60001ZM6.40001 11.2V14.4H14.4V6.40001H11.2V9.60001C11.2 10.4837 10.4836 11.2 9.60002 11.2H6.40001ZM9.60002 9.60001H1.6V1.60001H9.60002V9.60001Z" fill="black"/>
</g>
<defs>
<clipPath id="clip0_1_648">
<rect width="16" height="16" fill="white"/>
</clipPath>
</defs>
</svg>
