<svg width="17" height="16" viewBox="0 0 17 16" fill="none" xmlns="http://www.w3.org/2000/svg">
<g clip-path="url(#clip0_1_45)">
<mask id="mask0_1_45" style="mask-type:luminance" maskUnits="userSpaceOnUse" x="0" y="0" width="17" height="16">
<path d="M16.5 0H0.5V16H16.5V0Z" fill="white"/>
</mask>
<g mask="url(#mask0_1_45)">
<path fill-rule="evenodd" clip-rule="evenodd" d="M9.70457 3.63492L10.8609 4.75759L5.73385 9.89018C5.47658 10.149 5.47658 10.5656 5.73385 10.8245C5.97798 11.0702 6.3858 11.069 6.62733 10.8231L12.2683 5.17389C13.0918 4.3454 13.0918 3.01484 12.2683 2.18634C11.4825 1.39586 10.0924 1.41345 9.32228 2.18784L3.16535 8.34955C1.77528 9.74746 1.77528 11.9922 3.16535 13.3902C4.51517 14.7476 6.83398 14.7255 8.16275 13.3889L15.3436 6.19915L16.5 7.32171L9.32049 14.5101C7.36165 16.4805 3.99755 16.5126 2.00638 14.5102C-0.0023582 12.4901 -0.00235796 9.24954 2.00777 7.22811L8.1647 1.0664C9.56321 -0.340045 11.9988 -0.370846 13.4275 1.06652C14.8693 2.51712 14.8693 4.84311 13.4262 6.29502L7.78866 11.9409C6.91655 12.8288 5.45762 12.8328 4.57456 11.9442C3.69906 11.0633 3.69906 9.65138 4.57602 8.7689L9.70457 3.63492Z" fill="black"/>
</g>
</g>
<defs>
<clipPath id="clip0_1_45">
<rect width="17" height="16" fill="white"/>
</clipPath>
</defs>
</svg>
