<svg width="17" height="16" viewBox="0 0 17 16" fill="none" xmlns="http://www.w3.org/2000/svg">
<g clip-path="url(#clip0_1_63)">
<mask id="mask0_1_63" style="mask-type:luminance" maskUnits="userSpaceOnUse" x="0" y="0" width="17" height="16">
<path d="M16.5 0H0.5V16H16.5V0Z" fill="white"/>
</mask>
<g mask="url(#mask0_1_63)">
<path fill-rule="evenodd" clip-rule="evenodd" d="M6.61757 3.09095L3.78283 0.250155C3.39742 -0.0967602 2.78923 -0.0808953 2.4244 0.285576L1.79086 0.921964L1.64083 1.08034C0.476215 2.37232 0.171176 4.25255 0.87446 5.91119C1.91001 8.3535 3.17488 10.3238 4.66911 11.8222C6.16324 13.3206 8.12744 14.5885 10.5617 15.6257C12.2837 16.3595 14.2445 15.995 15.532 14.7017L16.2369 13.9937C16.5879 13.6411 16.5876 13.0891 16.2364 12.7368L13.4016 9.89604C13.0162 9.54909 12.408 9.56495 12.0432 9.93145L10.7443 11.2362L10.4712 11.1361C8.03249 10.1963 6.1082 8.20871 5.24782 5.7243L6.61809 4.34779C6.96912 3.99523 6.96889 3.44323 6.61757 3.09095Z" fill="black"/>
</g>
</g>
<defs>
<clipPath id="clip0_1_63">
<rect width="17" height="16" fill="white"/>
</clipPath>
</defs>
</svg>
