<svg width="17" height="16" viewBox="0 0 17 16" fill="none" xmlns="http://www.w3.org/2000/svg">
<g clip-path="url(#clip0_1_75)">
<mask id="mask0_1_75" style="mask-type:luminance" maskUnits="userSpaceOnUse" x="0" y="0" width="17" height="16">
<path d="M16.5 0H0.5V16H16.5V0Z" fill="white"/>
</mask>
<g mask="url(#mask0_1_75)">
<path fill-rule="evenodd" clip-rule="evenodd" d="M9.30008 8.38083C9.30008 8.80216 8.94168 9.14273 8.50008 9.14273C8.05848 9.14273 7.70008 8.80216 7.70008 8.38083V0.761894C7.70008 0.340567 8.05848 0 8.50008 0C8.94168 0 9.30008 0.340567 9.30008 0.761894V8.38083ZM11.0912 1.9362C11.2936 1.56211 11.7768 1.41659 12.1688 1.60859C14.84 2.92438 16.5 5.51863 16.5 8.38106C16.5 12.5814 12.9112 16 8.5 16C4.0888 16 0.5 12.5814 0.5 8.38106C0.5 5.51863 2.16 2.92438 4.832 1.60859C5.2232 1.41583 5.7064 1.56135 5.9096 1.9362C6.1128 2.30953 5.9584 2.76895 5.5664 2.96247C3.428 4.01465 2.1 6.09081 2.1 8.38106C2.1 11.7418 4.9712 14.4762 8.5 14.4762C12.0288 14.4762 14.9 11.7418 14.9 8.38106C14.9 6.09081 13.572 4.01465 11.4344 2.96247C11.0416 2.76895 10.888 2.30953 11.0912 1.9362Z" fill="#231F20"/>
<mask id="mask1_1_75" style="mask-type:luminance" maskUnits="userSpaceOnUse" x="0" y="0" width="17" height="16">
<path fill-rule="evenodd" clip-rule="evenodd" d="M9.30008 8.38083C9.30008 8.80216 8.94168 9.14273 8.50008 9.14273C8.05848 9.14273 7.70008 8.80216 7.70008 8.38083V0.761894C7.70008 0.340567 8.05848 0 8.50008 0C8.94168 0 9.30008 0.340567 9.30008 0.761894V8.38083ZM11.0912 1.9362C11.2936 1.56211 11.7768 1.41659 12.1688 1.60859C14.84 2.92438 16.5 5.51863 16.5 8.38106C16.5 12.5814 12.9112 16 8.5 16C4.0888 16 0.5 12.5814 0.5 8.38106C0.5 5.51863 2.16 2.92438 4.832 1.60859C5.2232 1.41583 5.7064 1.56135 5.9096 1.9362C6.1128 2.30953 5.9584 2.76895 5.5664 2.96247C3.428 4.01465 2.1 6.09081 2.1 8.38106C2.1 11.7418 4.9712 14.4762 8.5 14.4762C12.0288 14.4762 14.9 11.7418 14.9 8.38106C14.9 6.09081 13.572 4.01465 11.4344 2.96247C11.0416 2.76895 10.888 2.30953 11.0912 1.9362Z" fill="white"/>
</mask>
<g mask="url(#mask1_1_75)">
<path d="M18.9614 -1.14282H-0.730957V17.1429H18.9614V-1.14282Z" fill="black"/>
</g>
</g>
</g>
<defs>
<clipPath id="clip0_1_75">
<rect width="17" height="16" fill="white"/>
</clipPath>
</defs>
</svg>
