<svg width="16" height="16" viewBox="0 0 16 16" fill="none" xmlns="http://www.w3.org/2000/svg">
<g clip-path="url(#clip0_1_24)">
<mask id="mask0_1_24" style="mask-type:luminance" maskUnits="userSpaceOnUse" x="0" y="0" width="16" height="16">
<path d="M16 0H0V16H16V0Z" fill="white"/>
</mask>
<g mask="url(#mask0_1_24)">
<path d="M13.2414 0H2.75862C1.23508 0 0 1.23508 0 2.75862V13.2414C0 14.7649 1.23508 16 2.75862 16H13.2414C14.7649 16 16 14.7649 16 13.2414V2.75862C16 1.23508 14.7649 0 13.2414 0Z" fill="black"/>
<path d="M9.1088 7.99997L12.2124 4.89634C12.3597 4.74932 12.4425 4.54979 12.4428 4.34166C12.4429 4.13353 12.3604 3.93388 12.2135 3.78656C12.0664 3.63925 11.8668 3.55639 11.6587 3.55621C11.4507 3.55603 11.2509 3.63854 11.1035 3.78562L7.99999 6.88925L4.89637 3.78562C4.74907 3.6383 4.54929 3.55556 4.34099 3.55556C4.13268 3.55556 3.93291 3.6383 3.7856 3.78562C3.63834 3.93288 3.55554 4.13264 3.55554 4.34095C3.55554 4.54926 3.63834 4.74908 3.7856 4.89634L6.8892 7.99997L3.7856 11.1037C3.63834 11.251 3.55554 11.4507 3.55554 11.659C3.55554 11.8673 3.63834 12.0671 3.7856 12.2144C3.93291 12.3618 4.13268 12.4444 4.34099 12.4444C4.54929 12.4444 4.74907 12.3618 4.89637 12.2144L7.99999 9.11076L11.1035 12.2144C11.2509 12.3618 11.4507 12.4444 11.6589 12.4444C11.8672 12.4444 12.0671 12.3618 12.2144 12.2144C12.3618 12.0671 12.4444 11.8673 12.4444 11.659C12.4444 11.4507 12.3618 11.251 12.2144 11.1037L9.1088 7.99997Z" fill="white"/>
</g>
</g>
<defs>
<clipPath id="clip0_1_24">
<rect width="16" height="16" fill="white"/>
</clipPath>
</defs>
</svg>
