<svg width="16" height="16" viewBox="0 0 16 16" fill="none" xmlns="http://www.w3.org/2000/svg">
<g clip-path="url(#clip0_1_417)">
<path d="M13.3333 16H2.66667C1.95942 16 1.28115 15.719 0.781049 15.219C0.280952 14.7189 0 14.0406 0 13.3333V2.66667C0 1.95942 0.280952 1.28115 0.781049 0.781049C1.28115 0.280952 1.95942 0 2.66667 0H13.3333C14.0406 0 14.7189 0.280952 15.219 0.781049C15.719 1.28115 16 1.95942 16 2.66667V13.3333C16 14.0406 15.719 14.7189 15.219 15.219C14.7189 15.719 14.0406 16 13.3333 16ZM2.66667 1.77778C2.43092 1.77778 2.20483 1.87143 2.03813 2.03813C1.87143 2.20483 1.77778 2.43092 1.77778 2.66667V13.3333C1.77778 13.5691 1.87143 13.7952 2.03813 13.9619C2.20483 14.1286 2.43092 14.2222 2.66667 14.2222H13.3333C13.5691 14.2222 13.7952 14.1286 13.9619 13.9619C14.1286 13.7952 14.2222 13.5691 14.2222 13.3333V2.66667C14.2222 2.43092 14.1286 2.20483 13.9619 2.03813C13.7952 1.87143 13.5691 1.77778 13.3333 1.77778H2.66667Z" fill="black"/>
<rect x="3.55554" y="3.55556" width="8.88889" height="8.88889" rx="2" fill="black"/>
</g>
<defs>
<clipPath id="clip0_1_417">
<rect width="16" height="16" fill="white"/>
</clipPath>
</defs>
</svg>
