<svg width="16" height="16" viewBox="0 0 16 16" fill="none" xmlns="http://www.w3.org/2000/svg">
<g clip-path="url(#clip0_1_407)">
<path d="M13.3333 0H2.66667C1.95942 0 1.28115 0.280952 0.781049 0.781049C0.280952 1.28115 0 1.95942 0 2.66667V13.3333C0 14.0406 0.280952 14.7189 0.781049 15.219C1.28115 15.719 1.95942 16 2.66667 16H13.3333C14.0406 16 14.7189 15.719 15.219 15.219C15.719 14.7189 16 14.0406 16 13.3333V2.66667C16 1.95942 15.719 1.28115 15.219 0.781049C14.7189 0.280952 14.0406 0 13.3333 0ZM11.8222 5.87556L7.76 11.2089C7.67719 11.3165 7.57085 11.4036 7.44912 11.4637C7.3274 11.5238 7.19353 11.5552 7.05778 11.5556C6.92276 11.5563 6.78935 11.5262 6.66768 11.4677C6.54601 11.4092 6.43926 11.3237 6.35556 11.2178L4.18667 8.45333C4.11488 8.36112 4.06195 8.25566 4.03092 8.14299C3.99989 8.03032 3.99135 7.91264 4.00579 7.79667C4.02024 7.6807 4.05738 7.56871 4.11511 7.4671C4.17283 7.36548 4.25001 7.27623 4.34222 7.20444C4.52846 7.05946 4.76467 6.9944 4.99888 7.02357C5.11485 7.03801 5.22684 7.07516 5.32846 7.13288C5.43007 7.19061 5.51932 7.26778 5.59111 7.36L7.04 9.20889L10.4 4.76444C10.4712 4.67106 10.5601 4.59261 10.6616 4.53359C10.7632 4.47456 10.8753 4.43611 10.9917 4.42043C11.1081 4.40474 11.2264 4.41214 11.3399 4.44219C11.4535 4.47223 11.5599 4.52435 11.6533 4.59556C11.7467 4.66676 11.8252 4.75566 11.8842 4.85719C11.9432 4.95871 11.9817 5.07086 11.9974 5.18724C12.013 5.30363 12.0056 5.42196 11.9756 5.53548C11.9455 5.64901 11.8934 5.7555 11.8222 5.84889V5.87556Z" fill="black"/>
</g>
<defs>
<clipPath id="clip0_1_407">
<rect width="16" height="16" fill="white"/>
</clipPath>
</defs>
</svg>
